<svg width="27" height="34" viewBox="0 0 27 34" fill="none" xmlns="http://www.w3.org/2000/svg">
<path d="M15.8672 29.9452L16.0707 29.879L16.0743 29.665L16.4879 5.28772C16.5393 2.25774 13.8109 -0.00786495 11.045 0.901608L4.34278 3.10544C2.4904 3.71453 1.23491 5.53126 1.20867 7.58177L0.958815 27.1119C0.910367 30.8989 4.31443 33.7068 7.75538 32.5865L15.8672 29.9452ZM5.25333 6.21979L11.9556 4.01597L11.8619 3.73098L11.9556 4.01597C12.6616 3.78382 13.4296 4.3546 13.4148 5.229L13.0377 27.4557L6.85297 29.4695C5.46419 29.9217 4.0111 28.7965 4.03208 27.1562L4.28194 7.62606C4.2904 6.96443 4.69419 6.40364 5.25333 6.21979L5.15962 5.9348L5.25333 6.21979Z" fill="#FE7244" stroke="#FE7244" stroke-width="0.6"/>
<path d="M21.554 24.7403L15.5469 26.6464L15.7718 10.3563L21.0746 8.35618C22.103 7.96832 23.2359 8.78626 23.2263 10.0408L23.1314 22.475C23.1234 23.5374 22.4713 24.4492 21.554 24.7403ZM12.9211 7.97072L12.7299 8.04287L12.727 8.24728L12.4181 30.6287L12.4124 31.0446L12.8088 30.9188L22.4354 27.864C24.6672 27.1558 26.1861 24.9706 26.2049 22.5014L26.2998 10.0672C26.3261 6.61608 23.1446 4.11476 20.0444 5.28405L12.9211 7.97072Z" fill="#FE7244" stroke="#FE7244" stroke-width="0.6"/>
<path d="M16.2697 9.15643L16.4634 9.08305V8.87588V5.49138C16.4634 2.31059 13.5755 -0.0177604 10.685 0.962301L4.07738 3.20276C2.62136 3.69646 1.55399 5.01175 1.28787 6.60265C0.639645 10.4778 4.13063 13.7542 7.67513 12.4117L16.2697 9.15643ZM5.01372 6.3085L11.6214 4.06805C12.4701 3.78028 13.3899 4.45514 13.3899 5.49138V6.78486L6.64104 9.34106C5.39816 9.81178 4.06356 8.6706 4.31411 7.17279C4.38394 6.75531 4.66036 6.42832 5.01372 6.3085Z" fill="#FE7244" stroke="#FE7244" stroke-width="0.6"/>
</svg>
